<?xml version="1.0" encoding="UTF-8" standalone="no"?>
<svg
   xmlns:dc="http://purl.org/dc/elements/1.1/"
   xmlns:cc="http://creativecommons.org/ns#"
   xmlns:rdf="http://www.w3.org/1999/02/22-rdf-syntax-ns#"
   xmlns:svg="http://www.w3.org/2000/svg"
   xmlns="http://www.w3.org/2000/svg"
   xmlns:sodipodi="http://sodipodi.sourceforge.net/DTD/sodipodi-0.dtd"
   xmlns:inkscape="http://www.inkscape.org/namespaces/inkscape"
   version="1.1"
   id="Layer_1"
   x="0px"
   y="0px"
   viewBox="0 0 496 496"
   style="enable-background:new 0 0 496 496;"
   xml:space="preserve"
   sodipodi:docname="discharging.svg"
   inkscape:version="1.0.1 (c497b03c, 2020-09-10)"><metadata
   id="metadata900"><rdf:RDF><cc:Work
       rdf:about=""><dc:format>image/svg+xml</dc:format><dc:type
         rdf:resource="http://purl.org/dc/dcmitype/StillImage" /><dc:title></dc:title></cc:Work></rdf:RDF></metadata><defs
   id="defs898" /><sodipodi:namedview
   pagecolor="#ffffff"
   bordercolor="#666666"
   borderopacity="1"
   objecttolerance="10"
   gridtolerance="10"
   guidetolerance="10"
   inkscape:pageopacity="0"
   inkscape:pageshadow="2"
   inkscape:window-width="1221"
   inkscape:window-height="725"
   id="namedview896"
   showgrid="false"
   inkscape:zoom="1.3487903"
   inkscape:cx="248"
   inkscape:cy="248"
   inkscape:window-x="0"
   inkscape:window-y="23"
   inkscape:window-maximized="0"
   inkscape:current-layer="Layer_1" />
<g
   id="g843">
	<path
   style="fill:#DAE8E8;"
   d="M88,161.6c-12.8,0-24,10.4-24,23.2v125.6c0,12.8,11.2,23.2,24,23.2s24-10.4,24-23.2V184.8   C112,172,100.8,161.6,88,161.6z"
   id="path833" />
	<path
   style="fill:#DAE8E8;"
   d="M168,161.6c-12.8,0-24,10.4-24,23.2v125.6c0,12.8,11.2,23.2,24,23.2s24-10.4,24-23.2V184.8   C192,172,180.8,161.6,168,161.6z"
   id="path835" />
	<path
   style="fill:#000000;fill-opacity:0"
   d="M240,161.6c-12.8,0-24,10.4-24,23.2v125.6c0,12.8,11.2,23.2,24,23.2c12.8,0,24-10.4,24-23.2V184.8   C264,172,252.8,161.6,240,161.6z"
   id="path837" />
	<path
   style="fill:#000000;fill-opacity:0"
   d="M312,161.6c-12.8,0-24,10.4-24,23.2v125.6c0,12.8,11.2,23.2,24,23.2s24-10.4,24-23.2V184.8   C336,172,324.8,161.6,312,161.6z"
   id="path839" />
	<path
   style="fill:#DAE8E8;"
   d="M464,174.4L464,174.4c12.8,0,24,10.4,24,24v100c0,12.8-11.2,24-24,24l0,0"
   id="path841" />
</g>
<path
   style="fill:#6CE205;"
   d="M80,334.4c-12.8,0-24-10.4-24-23.2V184.8c0-12.8,11.2-23.2,24-23.2s24,10.4,24,23.2v125.6  C104,324,92.8,334.4,80,334.4z"
   id="path845" />
<path
   style="fill:#4AD102;"
   d="M56,184.8c0-12.8,11.2-23.2,24-23.2s24,10.4,24,23.2V312"
   id="path847" />
<path
   style="fill:#6CE205;"
   d="M160,334.4c-12.8,0-24-10.4-24-23.2V184.8c0-12.8,11.2-23.2,24-23.2s24,10.4,24,23.2v125.6  C184,324,172.8,334.4,160,334.4z"
   id="path849" />
<path
   style="fill:#4AD102;"
   d="M136,184.8c0-12.8,11.2-23.2,24-23.2s24,10.4,24,23.2V312"
   id="path851" />




<path
   style="fill:#BECCCC;"
   d="M464.8,168H464v-16c0-19.2-14.4-32-32.8-32H32.8C15.2,120,0,133.6,0,152v192c0,19.2,15.2,32,32.8,32  h398.4c17.6,0,32.8-13.6,32.8-32v-16h0.8c17.6,0,31.2-12.8,31.2-29.6V197.6C496,180.8,482.4,168,464.8,168z M448,344  c0,10.4-7.2,16-16.8,16H32.8C24,360,16,353.6,16,344V152c0-10.4,8-16,16.8-16h398.4c9.6,0,16.8,6.4,16.8,16L448,344L448,344z   M480,298.4c0,8.8-6.4,13.6-15.2,13.6H464V184h0.8c8.8,0,15.2,4.8,15.2,13.6V298.4z"
   id="path861" />
<path
   style="fill:#D3E2E2;"
   d="M263.2,360H32.8C24,360,16,353.6,16,344V152c0-6.4,3.2-10.4,8-14.4L11.2,128C4,133.6,0,141.6,0,152  v192c0,19.2,15.2,32,32.8,32H280L263.2,360z"
   id="path863" />
<g
   id="g865">
</g>
<g
   id="g867">
</g>
<g
   id="g869">
</g>
<g
   id="g871">
</g>
<g
   id="g873">
</g>
<g
   id="g875">
</g>
<g
   id="g877">
</g>
<g
   id="g879">
</g>
<g
   id="g881">
</g>
<g
   id="g883">
</g>
<g
   id="g885">
</g>
<g
   id="g887">
</g>
<g
   id="g889">
</g>
<g
   id="g891">
</g>
<g
   id="g893">
</g>
</svg>
