<?xml version="1.0" encoding="UTF-8" standalone="no"?>
<svg
   xmlns:dc="http://purl.org/dc/elements/1.1/"
   xmlns:cc="http://creativecommons.org/ns#"
   xmlns:rdf="http://www.w3.org/1999/02/22-rdf-syntax-ns#"
   xmlns:svg="http://www.w3.org/2000/svg"
   xmlns="http://www.w3.org/2000/svg"
   xmlns:sodipodi="http://sodipodi.sourceforge.net/DTD/sodipodi-0.dtd"
   xmlns:inkscape="http://www.inkscape.org/namespaces/inkscape"
   version="1.1"
   id="Capa_1"
   x="0px"
   y="0px"
   width="482.1626"
   height="453.70261"
   viewBox="0 0 482.16259 453.7026"
   xml:space="preserve"
   sodipodi:docname="load.svg"
   inkscape:version="1.0.1 (c497b03c, 2020-09-10)"><metadata
   id="metadata872"><rdf:RDF><cc:Work
       rdf:about=""><dc:format>image/svg+xml</dc:format><dc:type
         rdf:resource="http://purl.org/dc/dcmitype/StillImage" /><dc:title /></cc:Work></rdf:RDF></metadata><defs
   id="defs870" /><sodipodi:namedview
   pagecolor="#ffffff"
   bordercolor="#666666"
   borderopacity="1"
   objecttolerance="10"
   gridtolerance="10"
   guidetolerance="10"
   inkscape:pageopacity="0"
   inkscape:pageshadow="2"
   inkscape:window-width="1259"
   inkscape:window-height="842"
   id="namedview868"
   showgrid="false"
   inkscape:zoom="1.444101"
   inkscape:cx="226.53888"
   inkscape:cy="214.3873"
   inkscape:window-x="19"
   inkscape:window-y="23"
   inkscape:window-maximized="0"
   inkscape:current-layer="g835"
   inkscape:snap-global="true"
   inkscape:document-rotation="0" />
<g
   id="g835"
   transform="translate(9.4488001,-4.7801999)">
	<path
   d="m 67.845,82.072 c 43.749,-43.749 101.917,-67.843 163.788,-67.843 61.871,0 120.039,24.094 163.788,67.843 43.75,43.75 67.844,101.917 67.844,163.789 0,41.319 -11.02,81.888 -31.868,117.317 -20.225,34.369 -49.143,63.117 -83.629,83.137 -3.174,1.842 -6.642,2.719 -10.066,2.719 -6.925,0 -13.664,-3.586 -17.391,-10.008 -5.569,-9.592 -2.307,-21.885 7.288,-27.455 58.902,-34.191 95.493,-97.687 95.493,-165.711 0,-105.57 -85.888,-191.458 -191.458,-191.458 -105.571,0 -191.458,85.888 -191.458,191.458 0,44.625 12.084,81.852 34.948,107.654 18.607,21.002 43.59,33.047 68.539,33.047 25.002,0 53.332,-13.154 63.748,-47.994 -40.298,-8.321 -70.687,-44.084 -70.687,-86.809 v -58.534 c 0,-2.772 2.249,-5.021 5.021,-5.021 h 26.867 v -54.801 c 0,-11.093 8.992,-20.086 20.085,-20.086 11.095,0 20.088,8.993 20.088,20.086 v 54.801 h 45.693 v -54.801 c 0,-11.093 8.993,-20.086 20.087,-20.086 11.094,0 20.086,8.993 20.086,20.086 v 54.801 h 26.868 c 2.773,0 5.021,2.249 5.021,5.021 v 58.534 c 0,45.289 -34.144,82.748 -78.04,88.002 -4.717,22.156 -14.561,41.205 -29.139,56.072 -19.541,19.926 -46.427,30.9 -75.701,30.9 -36.438,0 -72.379,-16.977 -98.607,-46.578 C 24.5,356.959 0,314.83 0,245.858 0.002,183.989 24.095,125.821 67.845,82.072 Z"
   id="path833"
   style="fill:none;stroke:#991b1b;stroke-width:18.8976;stroke-miterlimit:4;stroke-dasharray:none;stroke-opacity:0.96862745" />
</g>
<g
   id="g837"
   transform="translate(9.4488001,-4.7801999)">
</g>
<g
   id="g839"
   transform="translate(9.4488001,-4.7801999)">
</g>
<g
   id="g841"
   transform="translate(9.4488001,-4.7801999)">
</g>
<g
   id="g843"
   transform="translate(9.4488001,-4.7801999)">
</g>
<g
   id="g845"
   transform="translate(9.4488001,-4.7801999)">
</g>
<g
   id="g847"
   transform="translate(9.4488001,-4.7801999)">
</g>
<g
   id="g849"
   transform="translate(9.4488001,-4.7801999)">
</g>
<g
   id="g851"
   transform="translate(9.4488001,-4.7801999)">
</g>
<g
   id="g853"
   transform="translate(9.4488001,-4.7801999)">
</g>
<g
   id="g855"
   transform="translate(9.4488001,-4.7801999)">
</g>
<g
   id="g857"
   transform="translate(9.4488001,-4.7801999)">
</g>
<g
   id="g859"
   transform="translate(9.4488001,-4.7801999)">
</g>
<g
   id="g861"
   transform="translate(9.4488001,-4.7801999)">
</g>
<g
   id="g863"
   transform="translate(9.4488001,-4.7801999)">
</g>
<g
   id="g865"
   transform="translate(9.4488001,-4.7801999)">
</g>
</svg>
