<?xml version="1.0" encoding="iso-8859-1"?>
<!-- Generator: Adobe Illustrator 19.0.0, SVG Export Plug-In . SVG Version: 6.00 Build 0)  -->
<svg version="1.1" id="Layer_1" xmlns="http://www.w3.org/2000/svg" xmlns:xlink="http://www.w3.org/1999/xlink" x="0px" y="0px"
	 viewBox="0 0 512 512" style="enable-background:new 0 0 512 512;" xml:space="preserve">
<path style="fill:#FFC61B;" d="M256.001,182.979c-8.461,0-15.319-6.86-15.319-15.319V84.939c0-8.459,6.858-15.319,15.319-15.319
	c8.461,0,15.319,6.86,15.319,15.319v82.721C271.32,176.121,264.461,182.979,256.001,182.979z"/>
<path style="fill:#FEE187;" d="M317.276,99.103v68.559c0,0.306-0.018,0.61-0.023,0.918c28.167,19.466,46.633,51.967,46.633,88.798
	c0,59.584-48.302,107.885-107.885,107.885s-107.885-48.302-107.885-107.885c0-36.831,18.467-69.333,46.633-88.798
	c-0.005-0.306-0.023-0.61-0.023-0.918V99.103C131.297,123.676,86.317,185.27,86.317,257.376c0,93.714,75.97,169.684,169.684,169.684
	s169.684-75.97,169.684-169.684C425.685,185.27,380.705,123.676,317.276,99.103z"/>
<g>
	<path style="fill:#FFC61B;" d="M256.001,442.379c-102.011,0-185.003-82.992-185.003-185.003c0-38.059,11.471-74.619,33.174-105.728
		c21.198-30.385,50.598-53.495,85.021-66.831c4.712-1.823,10.022-1.209,14.191,1.647c4.17,2.855,6.662,7.584,6.662,12.638
		l0.021,69.251c0.075,5.11-2.404,9.922-6.607,12.826c-25.061,17.321-40.025,45.805-40.025,76.195
		c0,51.041,41.525,92.567,92.567,92.567s92.567-41.525,92.567-92.567c0-30.391-14.963-58.876-40.025-76.195
		c-4.203-2.904-6.682-7.716-6.607-12.826l0.018-0.705l0.003-68.547c0-5.054,2.492-9.783,6.662-12.638
		c4.168-2.857,9.478-3.474,14.191-1.647c34.423,13.336,63.822,36.446,85.021,66.831c21.702,31.109,33.174,67.669,33.174,105.728
		C441.004,359.387,358.011,442.379,256.001,442.379z M179.407,123.354c-47.291,27.203-77.772,78.533-77.772,134.022
		c0,85.117,69.248,154.366,154.365,154.366s154.366-69.247,154.366-154.366c0-55.491-30.481-106.819-77.772-134.022v37.542
		c29.328,23.306,46.61,58.789,46.61,96.481c0,67.936-55.27,123.204-123.204,123.204s-123.204-55.268-123.204-123.204
		c0-37.692,17.283-73.176,46.61-96.481L179.407,123.354L179.407,123.354z"/>
	<path style="fill:#FFC61B;" d="M496.681,512H15.319C6.858,512,0,505.14,0,496.681V15.319C0,6.86,6.858,0,15.319,0h481.363
		C505.142,0,512,6.86,512,15.319v69.608c0,8.459-6.858,15.319-15.319,15.319s-15.319-6.86-15.319-15.319v-54.29H30.637v450.725
		h450.725V191.818c0-8.459,6.858-15.319,15.319-15.319S512,183.359,512,191.818v304.865C512,505.142,505.142,512,496.681,512z"/>
</g>
<g>
</g>
<g>
</g>
<g>
</g>
<g>
</g>
<g>
</g>
<g>
</g>
<g>
</g>
<g>
</g>
<g>
</g>
<g>
</g>
<g>
</g>
<g>
</g>
<g>
</g>
<g>
</g>
<g>
</g>
</svg>
