<?xml version="1.0" encoding="UTF-8" standalone="no"?>
<svg
   xmlns:dc="http://purl.org/dc/elements/1.1/"
   xmlns:cc="http://creativecommons.org/ns#"
   xmlns:rdf="http://www.w3.org/1999/02/22-rdf-syntax-ns#"
   xmlns:svg="http://www.w3.org/2000/svg"
   xmlns="http://www.w3.org/2000/svg"
   xmlns:sodipodi="http://sodipodi.sourceforge.net/DTD/sodipodi-0.dtd"
   xmlns:inkscape="http://www.inkscape.org/namespaces/inkscape"
   version="1.1"
   id="Capa_1"
   x="0px"
   y="0px"
   viewBox="0 0 297 297"
   style="enable-background:new 0 0 297 297;"
   xml:space="preserve"
   sodipodi:docname="car.svg"
   inkscape:version="1.0.1 (c497b03c, 2020-09-10)"><metadata
   id="metadata878"><rdf:RDF><cc:Work
       rdf:about=""><dc:format>image/svg+xml</dc:format><dc:type
         rdf:resource="http://purl.org/dc/dcmitype/StillImage" /></cc:Work></rdf:RDF></metadata><defs
   id="defs876" /><sodipodi:namedview
   pagecolor="#ffffff"
   bordercolor="#666666"
   borderopacity="1"
   objecttolerance="10"
   gridtolerance="10"
   guidetolerance="10"
   inkscape:pageopacity="0"
   inkscape:pageshadow="2"
   inkscape:window-width="1273"
   inkscape:window-height="852"
   id="namedview874"
   showgrid="false"
   inkscape:zoom="2.2525253"
   inkscape:cx="193.11659"
   inkscape:cy="161.37444"
   inkscape:window-x="-30"
   inkscape:window-y="203"
   inkscape:window-maximized="0"
   inkscape:current-layer="g841" />
<g
   id="g841"
   style="stroke:#250000;stroke-width:1.00157;stroke-miterlimit:4;stroke-dasharray:none;stroke-opacity:1">
	<path
   d="m 272.132,108.323 4.615,-4.616 c 3.932,-3.932 3.932,-10.307 0,-14.238 -3.933,-3.931 -10.306,-3.931 -14.238,0 l -4.73,4.731 -9.085,-36.339 C 245.433,44.822 232.351,34.608 218.912,34.608 H 78.087 c -13.439,0 -26.521,10.214 -29.782,23.254 L 39.221,94.2 34.491,89.469 c -3.933,-3.931 -10.306,-3.931 -14.238,0 -3.932,3.932 -3.932,10.307 0,14.238 l 4.615,4.616 C 10.156,115.535 0,130.663 0,148.122 v 35.363 c 0,14.272 6.791,26.98 17.303,35.087 v 17.644 c 0,14.434 11.742,26.176 26.177,26.176 h 19.696 c 14.434,0 26.176,-11.742 26.176,-26.176 v -8.432 h 118.295 v 8.432 c 0,14.434 11.742,26.176 26.176,26.176 h 19.696 c 14.434,0 26.177,-11.742 26.177,-26.176 V 218.574 C 290.208,210.467 297,197.759 297,183.485 v -35.363 c 0,-17.459 -10.156,-32.587 -24.868,-39.799 z m -213.783,-7.618 9.49,-37.959 c 1.028,-4.114 6.009,-8.003 10.248,-8.003 h 140.824 c 4.239,0 9.22,3.889 10.248,8.003 l 9.491,37.96 c 0.262,1.053 0.21,1.949 -0.141,2.399 -0.353,0.45 -1.21,0.719 -2.294,0.719 H 60.783 c -1.084,0 -1.941,-0.269 -2.294,-0.719 -0.35,-0.45 -0.402,-1.346 -0.14,-2.4 z m -38.213,47.417 c 0,-13.322 10.84,-24.162 24.162,-24.162 h 208.404 c 13.322,0 24.162,10.84 24.162,24.162 v 35.363 c 0,13.323 -10.84,24.163 -24.162,24.163 H 44.298 c -13.322,0 -24.162,-10.84 -24.162,-24.163 z m 49.08,88.094 c 0,3.273 -2.767,6.04 -6.04,6.04 H 43.479 c -3.274,0 -6.041,-2.767 -6.041,-6.04 v -8.965 c 2.237,0.349 4.526,0.533 6.859,0.533 h 24.918 v 8.432 z m 190.344,0 c 0,3.273 -2.767,6.04 -6.041,6.04 h -19.696 c -3.273,0 -6.04,-2.767 -6.04,-6.04 v -8.432 h 24.92 c 2.332,0 4.621,-0.185 6.858,-0.533 v 8.965 z"
   id="path833"
   style="stroke:#258ffb;stroke-width:1.00157;stroke-miterlimit:4;stroke-dasharray:none;stroke-opacity:1;fill:#258ffb;fill-opacity:1" />
	<path
   d="m 113.89,175.872 h 69.219 c 5.56,0 10.067,-4.508 10.067,-10.068 0,-5.56 -4.508,-10.067 -10.067,-10.067 H 113.89 c -5.56,0 -10.067,4.508 -10.067,10.067 -10e-4,5.56 4.507,10.068 10.067,10.068 z"
   id="path835"
   style="stroke:#258ffb;stroke-width:1.00157;stroke-miterlimit:4;stroke-dasharray:none;stroke-opacity:1;fill:#258ffb;fill-opacity:1" />
	<path
   d="m 61.979,193.176 c 15.093,0 27.372,-12.279 27.372,-27.372 0,-15.093 -12.279,-27.371 -27.372,-27.371 -15.093,0 -27.371,12.278 -27.371,27.371 -10e-4,15.092 12.278,27.372 27.371,27.372 z m 0,-34.609 c 3.99,0 7.236,3.247 7.236,7.236 0,3.99 -3.246,7.236 -7.236,7.236 -3.989,0 -7.236,-3.246 -7.236,-7.236 -0.001,-3.989 3.246,-7.236 7.236,-7.236 z"
   id="path837"
   style="stroke:#258ffb;stroke-width:1.00157;stroke-miterlimit:4;stroke-dasharray:none;stroke-opacity:1;fill:#258ffb;fill-opacity:1" />
	<path
   d="m 235.02,193.176 c 15.093,0 27.371,-12.279 27.371,-27.372 0,-15.093 -12.278,-27.371 -27.371,-27.371 -15.093,0 -27.372,12.278 -27.372,27.371 -0.001,15.092 12.279,27.372 27.372,27.372 z m 0,-34.609 c 3.989,0 7.236,3.247 7.236,7.236 0,3.99 -3.247,7.236 -7.236,7.236 -3.99,0 -7.236,-3.246 -7.236,-7.236 -0.001,-3.989 3.245,-7.236 7.236,-7.236 z"
   id="path839"
   style="stroke:#258ffb;stroke-width:1.00157;stroke-miterlimit:4;stroke-dasharray:none;stroke-opacity:1;fill:#258ffb;fill-opacity:1" />
</g>
<g
   id="g843">
</g>
<g
   id="g845">
</g>
<g
   id="g847">
</g>
<g
   id="g849">
</g>
<g
   id="g851">
</g>
<g
   id="g853">
</g>
<g
   id="g855">
</g>
<g
   id="g857">
</g>
<g
   id="g859">
</g>
<g
   id="g861">
</g>
<g
   id="g863">
</g>
<g
   id="g865">
</g>
<g
   id="g867">
</g>
<g
   id="g869">
</g>
<g
   id="g871">
</g>
</svg>
