<?xml version="1.0" encoding="UTF-8" standalone="no"?>
<svg
   xmlns:dc="http://purl.org/dc/elements/1.1/"
   xmlns:cc="http://creativecommons.org/ns#"
   xmlns:rdf="http://www.w3.org/1999/02/22-rdf-syntax-ns#"
   xmlns:svg="http://www.w3.org/2000/svg"
   xmlns="http://www.w3.org/2000/svg"
   xmlns:sodipodi="http://sodipodi.sourceforge.net/DTD/sodipodi-0.dtd"
   xmlns:inkscape="http://www.inkscape.org/namespaces/inkscape"
   version="1.1"
   id="Layer_1"
   x="0px"
   y="0px"
   viewBox="0 0 496 496"
   style="enable-background:new 0 0 496 496;"
   xml:space="preserve"
   sodipodi:docname="charging.svg"
   inkscape:version="1.0.1 (c497b03c, 2020-09-10)"><metadata
   id="metadata900"><rdf:RDF><cc:Work
       rdf:about=""><dc:format>image/svg+xml</dc:format><dc:type
         rdf:resource="http://purl.org/dc/dcmitype/StillImage" /></cc:Work></rdf:RDF></metadata><defs
   id="defs898" /><sodipodi:namedview
   pagecolor="#ffffff"
   bordercolor="#666666"
   borderopacity="1"
   objecttolerance="10"
   gridtolerance="10"
   guidetolerance="10"
   inkscape:pageopacity="0"
   inkscape:pageshadow="2"
   inkscape:window-width="1078"
   inkscape:window-height="643"
   id="namedview896"
   showgrid="false"
   inkscape:zoom="1.3487903"
   inkscape:cx="32.992526"
   inkscape:cy="230.20628"
   inkscape:window-x="0"
   inkscape:window-y="23"
   inkscape:window-maximized="0"
   inkscape:current-layer="Layer_1" />
<g
   id="g843"
   transform="matrix(-1,0,0,1,496,0)">
	<path
   style="fill:#dae8e8"
   d="m 88,161.6 c -12.8,0 -24,10.4 -24,23.2 v 125.6 c 0,12.8 11.2,23.2 24,23.2 12.8,0 24,-10.4 24,-23.2 V 184.8 C 112,172 100.8,161.6 88,161.6 Z"
   id="path833" />
	<path
   style="fill:#dae8e8"
   d="m 168,161.6 c -12.8,0 -24,10.4 -24,23.2 v 125.6 c 0,12.8 11.2,23.2 24,23.2 12.8,0 24,-10.4 24,-23.2 V 184.8 c 0,-12.8 -11.2,-23.2 -24,-23.2 z"
   id="path835" />
	<path
   style="fill:#dae8e8"
   d="m 240,161.6 c -12.8,0 -24,10.4 -24,23.2 v 125.6 c 0,12.8 11.2,23.2 24,23.2 12.8,0 24,-10.4 24,-23.2 V 184.8 c 0,-12.8 -11.2,-23.2 -24,-23.2 z"
   id="path837" />
	<path
   style="fill:#dae8e8"
   d="m 312,161.6 c -12.8,0 -24,10.4 -24,23.2 v 125.6 c 0,12.8 11.2,23.2 24,23.2 12.8,0 24,-10.4 24,-23.2 V 184.8 c 0,-12.8 -11.2,-23.2 -24,-23.2 z"
   id="path839" />
	<path
   style="fill:#dae8e8"
   d="m 464,174.4 v 0 c 12.8,0 24,10.4 24,24 v 100 c 0,12.8 -11.2,24 -24,24 v 0"
   id="path841" />
</g>
<path
   style="fill:#6ce205"
   d="m 416,334.4 c 12.8,0 24,-10.4 24,-23.2 V 184.8 c 0,-12.8 -11.2,-23.2 -24,-23.2 -12.8,0 -24,10.4 -24,23.2 v 125.6 c 0,13.6 11.2,24 24,24 z"
   id="path845" />
<path
   style="fill:#4ad102"
   d="m 440,184.8 c 0,-12.8 -11.2,-23.2 -24,-23.2 -12.8,0 -24,10.4 -24,23.2 V 312"
   id="path847" />
<path
   style="fill:#6ce205"
   d="m 336,334.4 c 12.8,0 24,-10.4 24,-23.2 V 184.8 c 0,-12.8 -11.2,-23.2 -24,-23.2 -12.8,0 -24,10.4 -24,23.2 v 125.6 c 0,13.6 11.2,24 24,24 z"
   id="path849" />
<path
   style="fill:#4ad102"
   d="m 360,184.8 c 0,-12.8 -11.2,-23.2 -24,-23.2 -12.8,0 -24,10.4 -24,23.2 V 312"
   id="path851" />
<path
   style="fill:#6ce205"
   d="m 264,334.4 c 12.8,0 24,-10.4 24,-23.2 V 184.8 c 0,-12.8 -11.2,-23.2 -24,-23.2 -12.8,0 -24,10.4 -24,23.2 v 125.6 c 0,13.6 11.2,24 24,24 z"
   id="path853" />
<path
   style="fill:#4ad102"
   d="m 288,184.8 c 0,-12.8 -11.2,-23.2 -24,-23.2 -12.8,0 -24,10.4 -24,23.2 V 312"
   id="path855" />
<path
   style="fill:#6ce205"
   d="m 192,334.4 c 12.8,0 24,-10.4 24,-23.2 V 184.8 c 0,-12.8 -11.2,-23.2 -24,-23.2 -12.8,0 -24,10.4 -24,23.2 v 125.6 c 0,13.6 11.2,24 24,24 z"
   id="path857" />
<path
   style="fill:#4ad102"
   d="m 216,184.8 c 0,-12.8 -11.2,-23.2 -24,-23.2 -12.8,0 -24,10.4 -24,23.2 V 312"
   id="path859" />
<path
   style="fill:#becccc"
   d="M 31.2,168 H 32 v -16 c 0,-19.2 14.4,-32 32.8,-32 h 398.4 c 17.6,0 32.8,13.6 32.8,32 v 192 c 0,19.2 -15.2,32 -32.8,32 H 64.8 C 47.2,376 32,362.4 32,344 V 328 H 31.2 C 13.6,328 0,315.2 0,298.4 V 197.6 C 0,180.8 13.6,168 31.2,168 Z M 48,344 c 0,10.4 7.2,16 16.8,16 h 398.4 c 8.8,0 16.8,-6.4 16.8,-16 V 152 c 0,-10.4 -8,-16 -16.8,-16 H 64.8 C 55.2,136 48,142.4 48,152 V 344 Z M 16,298.4 c 0,8.8 6.4,13.6 15.2,13.6 H 32 V 184 H 31.2 C 22.4,184 16,188.8 16,197.6 Z"
   id="path861" />
<path
   style="fill:#d3e2e2"
   d="m 232.8,360 h 230.4 c 8.8,0 16.8,-6.4 16.8,-16 V 152 c 0,-6.4 -3.2,-10.4 -8,-14.4 l 12.8,-9.6 c 7.2,5.6 11.2,13.6 11.2,24 v 192 c 0,19.2 -15.2,32 -32.8,32 H 216 Z"
   id="path863" />
<g
   id="g865"
   transform="matrix(-1,0,0,1,496,0)">
</g>
<g
   id="g867"
   transform="matrix(-1,0,0,1,496,0)">
</g>
<g
   id="g869"
   transform="matrix(-1,0,0,1,496,0)">
</g>
<g
   id="g871"
   transform="matrix(-1,0,0,1,496,0)">
</g>
<g
   id="g873"
   transform="matrix(-1,0,0,1,496,0)">
</g>
<g
   id="g875"
   transform="matrix(-1,0,0,1,496,0)">
</g>
<g
   id="g877"
   transform="matrix(-1,0,0,1,496,0)">
</g>
<g
   id="g879"
   transform="matrix(-1,0,0,1,496,0)">
</g>
<g
   id="g881"
   transform="matrix(-1,0,0,1,496,0)">
</g>
<g
   id="g883"
   transform="matrix(-1,0,0,1,496,0)">
</g>
<g
   id="g885"
   transform="matrix(-1,0,0,1,496,0)">
</g>
<g
   id="g887"
   transform="matrix(-1,0,0,1,496,0)">
</g>
<g
   id="g889"
   transform="matrix(-1,0,0,1,496,0)">
</g>
<g
   id="g891"
   transform="matrix(-1,0,0,1,496,0)">
</g>
<g
   id="g893"
   transform="matrix(-1,0,0,1,496,0)">
</g>
</svg>
